<svg width="91" height="112" viewBox="0 0 91 112" fill="none" xmlns="http://www.w3.org/2000/svg">
<path d="M54.4343 110.298L3.81699 83.6075C2.98487 83.1696 2.24738 82.5718 1.64683 81.8483C1.04628 81.1247 0.594479 80.2898 0.317337 79.3912C0.0401951 78.4927 -0.0568325 77.5483 0.031823 76.6122C0.120479 75.6761 0.393066 74.7667 0.83396 73.9362L37.8235 3.81925C38.7144 2.14096 40.2334 0.883497 42.0485 0.321609C43.8636 -0.240279 45.8273 -0.0609113 47.5106 0.820519L79.6802 17.7767L91 56.509L64.1213 107.299C63.2304 108.977 61.7115 110.235 59.8964 110.797C58.0813 111.359 56.1176 111.179 54.4343 110.298Z" fill="#029491"/>
<g opacity="0.3">
<path d="M79.6802 17.7761L69.2553 37.4955C68.4342 39.0601 68.2655 40.8861 68.7862 42.5746C69.3069 44.2631 70.4746 45.677 72.0343 46.5074L91.0001 56.5084L79.6802 17.7761Z" fill="white"/>
</g>
<g opacity="0.2">
<path d="M68.5479 39.3643C67.7702 40.8641 67.5283 42.5847 67.8624 44.2409C68.1965 45.897 69.0864 47.3893 70.3848 48.4704L70.9343 48.9257C73.1794 50.6841 87.9376 62.1923 88.2045 61.8155C88.4714 61.4387 90.9991 56.5088 90.9991 56.5088L72.0333 46.5078C72.0333 46.5078 67.3233 43.8388 68.5479 39.3643Z" fill="black"/>
</g>
<path d="M65.3767 34.4503C65.2354 34.7015 59.8974 32.1424 53.4289 28.7198C46.9604 25.2971 41.8265 22.3455 41.9992 22.0786C42.1719 21.8117 47.4942 24.3865 53.9627 27.8091C60.4312 31.2318 65.5494 34.1991 65.3767 34.4503Z" fill="#FAFAFA"/>
<path d="M74.6096 53.6515C74.4841 53.9027 65.7391 49.5538 55.0943 43.9331C44.4496 38.3125 35.9402 33.4925 36.0658 33.2413C36.1914 32.9901 44.9363 37.3391 55.5811 42.9597C66.2258 48.5804 74.751 53.3375 74.6096 53.6515Z" fill="#FAFAFA"/>
<path d="M73.1645 64.7361C73.0389 64.9873 63.5246 60.2301 51.9222 54.0914C40.3198 47.9526 31.0096 42.8029 31.1509 42.5517C31.2922 42.3005 40.8065 47.0577 52.4089 53.1808C64.0113 59.3038 73.3058 64.4849 73.1645 64.7361Z" fill="#FAFAFA"/>
<path d="M68.5344 73.5122C68.3931 73.7634 58.8788 69.0062 47.2764 62.8832C35.674 56.7601 26.3795 51.5791 26.5208 51.3279C26.6621 51.0767 36.1607 55.8338 47.7631 61.9569C59.3655 68.0799 68.6914 73.261 68.5344 73.5122Z" fill="#FAFAFA"/>
<path d="M63.8862 82.3042C63.7606 82.5554 54.2463 77.7982 42.6439 71.6594C31.0415 65.5207 21.7469 60.371 21.8726 60.1198C21.9982 59.8686 31.5282 64.6415 43.1306 70.7488C54.733 76.8562 63.9804 82.053 63.8862 82.3042Z" fill="#FAFAFA"/>
<path d="M59.2707 91.0803C59.1294 91.3315 49.6151 86.5744 38.0284 80.4513C26.4416 74.3282 17.1157 69.1472 17.257 68.896C17.3983 68.6448 26.8969 73.4019 38.4994 79.525C50.1018 85.6481 59.3963 90.8291 59.2707 91.0803Z" fill="#FAFAFA"/>
</svg>
