<svg width="350" height="234" viewBox="0 0 350 234" fill="none" xmlns="http://www.w3.org/2000/svg">
<path d="M243.619 124.16C221.72 130.225 180.353 172.53 205.994 192.371C231.636 212.212 308.26 106.241 243.619 124.16Z" fill="#ECF2FA"/>
<path d="M116.65 21.0294L116.331 20.9657L117.296 16.4129C115.809 15.6131 114.459 14.5802 113.299 13.3534L113.554 13.1257C114.712 14.3562 116.066 15.3869 117.56 16.1761L117.679 16.2308L116.65 21.0294Z" fill="#101C3A"/>
<path d="M139.34 16.3128C152.425 32.4481 162.396 30.6998 154.346 48.6379C146.297 66.5761 176.072 57.2519 174.433 75.3904C172.794 93.5288 158.726 92.2267 171.611 107.315C184.495 122.403 157.297 149.966 157.297 149.966H76.411C76.411 149.966 47.3185 136.243 55.3679 113.334C63.4173 90.4238 49.4128 90.1962 68.8078 74.1793C81.2006 63.9719 69.8094 57.7891 69.8094 42.8558C69.8094 26.3564 86.1996 18.6257 93.73 20.2192C101.26 21.8127 117.541 -10.5671 139.34 16.3128Z" fill="#101C3A"/>
<path d="M148.464 168.45C148.464 168.45 153.582 199.509 163.507 211.866L65.7939 212.922C65.7939 212.922 79.2703 185.751 79.7347 170.043L148.464 168.45Z" fill="#364AC0"/>
<path d="M65.3301 213.213L65.5304 212.795C65.667 212.521 78.9977 185.478 79.4438 169.998V169.725H79.717L148.711 168.168L148.756 168.404C148.756 168.714 153.974 199.537 163.735 211.684L164.108 212.139H163.516L65.3301 213.213ZM80.0084 170.317C79.453 184.886 67.9343 209.161 66.2498 212.631L162.925 211.583C153.755 199.673 148.711 171.655 148.219 168.714L80.0084 170.317Z" fill="#101C3A"/>
<path d="M132.056 95.186C127.139 99.3837 122.75 114.262 134.096 125.235C145.441 136.207 177.193 156.358 188.493 159.517C204.819 164.07 230.734 151.25 219.889 126.519C212.896 110.575 173.287 97.2621 159.136 92.4998C144.986 87.7375 138.375 89.7954 132.056 95.186Z" fill="#5970FF"/>
<path d="M180.744 127.739L181.773 127.347C179.542 121.465 172.804 114.718 172.512 114.436L171.738 115.219C171.811 115.319 178.595 122.102 180.744 127.739Z" fill="#101C3A"/>
<path d="M94.6591 109.792C94.9049 103.691 87.3746 91.134 72.5415 91.9535C57.7083 92.773 21.0034 94.321 11.5882 100.149C-2.07032 108.535 -7.36072 142.217 16.7055 150.548C32.1852 155.921 66.7867 137.027 79.1704 130.279C91.5541 123.532 94.3404 117.613 94.6591 109.792Z" fill="#5970FF"/>
<path d="M50.1604 110.219C55.4028 109.61 60.5611 108.419 65.5399 106.668L65.1848 105.685C65.0573 105.73 52.2456 110.338 43.923 109.136L43.7773 110.165C45.8957 110.43 48.0378 110.448 50.1604 110.219V110.219Z" fill="#364AC0"/>
<path d="M162.751 148.072C164.7 142.353 163.88 126.072 162.751 118.305C161.841 109.3 162.852 95.4773 153.864 90.7151C149.812 88.5661 132.184 87.5554 124.289 85.3154H104.229C98.0192 86.8998 82.9129 89.9411 77.1673 92.9004C73.3156 94.8855 70.1468 96.3879 67.9523 102.971C65.5484 115.492 65.0567 125.289 62.9988 137.846C61.8151 144.575 62.8987 149.911 66.9962 159.7C72.924 176.372 58.5098 202.569 58.5098 202.569C58.5098 202.569 118.562 226.398 170.054 202.095C170.054 202.105 155.012 170.818 162.751 148.072Z" fill="#5970FF"/>
<path d="M62.6444 194.802L61.8613 194.474C65.3033 186.279 70.5117 170.799 66.5963 159.873C62.3895 149.856 61.4152 144.448 62.5807 137.801C63.4912 132.337 64.1377 126.874 64.766 121.538C65.3943 116.202 66.0408 110.866 66.9241 105.457L67.7618 105.594C66.8512 110.984 66.232 116.402 65.6038 121.638C64.9755 126.874 64.3199 132.41 63.4184 137.946C62.2802 144.411 63.2454 149.665 67.3885 159.572C71.2037 170.262 66.9059 184.631 62.6444 194.802Z" fill="#364AC0"/>
<path d="M163.279 184.449C160.593 174.433 158.244 159.991 162.369 147.935C164.19 142.599 163.58 127.411 162.46 118.961L163.298 118.852C164.427 127.384 165.037 142.745 163.17 148.208C159.136 160.046 161.458 174.341 164.081 184.221L163.279 184.449Z" fill="#101C3A"/>
<path d="M124.388 68.1058V85.5887C132.729 107.178 114.108 134.113 114.108 134.113C114.108 134.113 96.6434 104.975 104.565 85.5159V60.3569C111.01 63.3399 117.629 65.9277 124.388 68.1058V68.1058Z" fill="#FFAE99"/>
<path d="M87.0642 89.413L86.8457 88.4387C87.4467 88.3021 101.56 85.0332 104.538 85.0332V86.0257C101.679 86.0257 87.219 89.3766 87.0642 89.413Z" fill="#101C3A"/>
<path d="M139.158 88.3657C129.898 86.9817 124.27 85.8162 124.216 85.798L124.416 84.8328C124.471 84.8328 130.08 86.0074 139.304 87.3823L139.158 88.3657Z" fill="#364AC0"/>
<path d="M197.262 63.0884C197.262 66.6123 199.174 67.1496 199.001 76.0094C200.33 91.0883 186.38 132.364 186.79 138.074C188.11 156.412 217.604 156.685 221.155 139.294C223.987 125.444 216.274 90.1778 211.585 76.838C209.135 69.9086 217.449 68.9343 219.625 65.3649C221.801 61.7954 197.253 60.7665 197.262 63.0884Z" fill="#FFAE99"/>
<path d="M122.304 75.0532C123.652 73.742 125.036 68.5518 126.511 68.0601V63.6438C119.135 61.3655 111.902 58.6502 104.849 55.5125V70.555C105.868 71.3654 107.58 75.8818 109.711 77.4207C113.299 80.034 117.988 79.2782 122.304 75.0532Z" fill="#101C3A"/>
<path d="M131.009 47.1628C130.308 41.7541 130.026 38.0572 121.33 35.0705C112.033 31.92 103.819 35.9811 100.669 45.2507C99.5853 48.4559 101.579 62.8883 102.818 67.3865C103.665 70.4824 113.308 75.9094 113.308 75.9094C113.836 76.6834 117.733 76.6652 118.27 75.8548C118.27 75.8548 127.64 69.5355 128.414 67.4503C130.044 63.0886 131.218 48.7654 131.009 47.1628Z" fill="#FFAE99"/>
<path d="M114.582 61.7044L114.182 60.9031C114.182 60.9031 116.604 59.6648 116.094 58.5357C114.564 55.1484 115.183 50.55 115.183 50.3406L116.094 50.4681C116.094 50.5136 115.484 55.0209 116.904 58.1532C117.751 60.0927 114.71 61.6407 114.582 61.7044Z" fill="#101C3A"/>
<path d="M104.093 49.1387L103.592 48.3921C108.081 45.369 111.414 48.1371 111.441 48.1644L110.867 48.8473C110.703 48.7472 107.953 46.5072 104.093 49.1387Z" fill="#101C3A"/>
<path d="M126.156 49.3573C126.056 49.2389 123.67 46.6256 119.418 48.6289L119.035 47.8276C123.916 45.5056 126.802 48.7381 126.83 48.7381L126.156 49.3573Z" fill="#101C3A"/>
<path d="M113.935 66.2209C112.534 66.2477 111.138 66.0635 109.792 65.6746L110.074 64.8277C111.33 65.1813 112.631 65.35 113.935 65.3285C116.266 65.3285 120.701 63.9354 120.746 63.9263L121.019 64.7731C120.828 64.8368 116.403 66.2209 113.935 66.2209Z" fill="#101C3A"/>
<path d="M107.935 33.3587C107.935 33.3587 122.877 45.4511 133.348 48.2101C133.348 48.2101 135.962 24.7903 107.935 33.3587Z" fill="#101C3A"/>
<path d="M105.823 52.5715C105.821 52.9861 105.943 53.3919 106.172 53.7375C106.401 54.0831 106.727 54.353 107.11 54.5129C107.492 54.6728 107.914 54.7156 108.321 54.6358C108.727 54.556 109.101 54.3573 109.395 54.0647C109.689 53.7722 109.889 53.3991 109.971 52.9926C110.052 52.5861 110.012 52.1645 109.853 51.7813C109.695 51.3981 109.427 51.0704 109.082 50.8399C108.737 50.6094 108.332 50.4863 107.918 50.4863C107.364 50.4863 106.832 50.7057 106.44 51.0965C106.047 51.4873 105.826 52.0177 105.823 52.5715Z" fill="#101C3A"/>
<path d="M120.365 52.5715C120.363 52.9865 120.485 53.3927 120.714 53.7385C120.944 54.0843 121.271 54.3541 121.654 54.5138C122.037 54.6734 122.459 54.7156 122.866 54.6351C123.273 54.5546 123.647 54.355 123.94 54.0615C124.234 53.7681 124.434 53.3941 124.514 52.987C124.595 52.5799 124.552 52.158 124.393 51.775C124.233 51.3919 123.963 51.0649 123.617 50.8355C123.272 50.6061 122.865 50.4845 122.45 50.4863C121.898 50.4887 121.369 50.7092 120.979 51.0997C120.588 51.4903 120.368 52.0192 120.365 52.5715V52.5715Z" fill="#101C3A"/>
<path d="M76.6022 57.4339C76.6022 57.4339 71.2663 70.5188 69.773 72.349C67.5512 75.0807 65.7392 74.3158 60.3122 81.3272C49.8225 92.254 34.8164 133.138 30.9009 137.327C18.3715 150.776 -4.77504 132.501 3.36542 116.721C9.85776 104.155 37.9669 81.5275 49.9955 74.0791C56.2511 70.2183 52.7909 68.2606 53.3282 64.1175C53.8654 59.9744 77.3398 52.6443 76.6022 57.4339Z" fill="#FFAE99"/>
<path d="M65.2937 74.3888C65.2937 74.3888 68.1529 76.9565 71.8589 74.2522C75.5649 71.5478 77.2312 70.6099 80.054 70.1637C82.8768 69.7176 80.4364 65.1101 73.7529 67.341C67.0693 69.5719 64.884 69.0073 65.2937 74.3888Z" fill="#FFAE99"/>
<path d="M73.6252 67.6414C73.3791 67.7725 73.1599 67.9485 72.9787 68.1604C72.792 68.3714 72.6523 68.6197 72.5689 68.8888C72.5314 69.0258 72.507 69.1661 72.4961 69.3077C72.5003 69.4488 72.5186 69.5891 72.5507 69.7265C72.5826 69.8627 72.6315 69.9943 72.6964 70.1181C72.7274 70.1819 72.764 70.2428 72.8057 70.3002L72.9241 70.4641C72.8785 70.3366 72.8057 70.2183 72.7693 70.0908C72.6876 69.841 72.6476 69.5795 72.6509 69.3168C72.6614 69.1871 72.6859 69.0589 72.7237 68.9344C72.8012 68.6821 72.9213 68.445 73.0789 68.2332C73.2389 68.0166 73.4221 67.8182 73.6252 67.6414V67.6414Z" fill="#D17F80"/>
<path d="M52.1901 74.6529L54.6122 73.7423L52.9094 69.5537L50.4873 70.4643C50.2117 70.5707 49.96 70.731 49.747 70.9358C49.534 71.1406 49.3641 71.3859 49.2471 71.6573C49.13 71.9286 49.0683 72.2205 49.0655 72.516C49.0627 72.8115 49.1189 73.1046 49.2308 73.3781C49.4595 73.9352 49.8973 74.3807 50.4505 74.6189C51.0036 74.8572 51.6281 74.8694 52.1901 74.6529V74.6529Z" fill="#390D9F"/>
<path d="M49.1485 71.4567C49.4114 70.9603 49.8446 70.5755 50.3686 70.3731L52.9182 69.3806L54.7394 73.8242L52.1898 74.8167C51.5938 75.0458 50.9319 75.0332 50.3451 74.7815C49.7583 74.5297 49.293 74.0588 49.0483 73.469C48.9281 73.1805 48.8662 72.871 48.8662 72.5585C48.8662 72.2459 48.9281 71.9364 49.0483 71.6479C49.072 71.5796 49.1058 71.5151 49.1485 71.4567V71.4567ZM52.7907 69.7084L50.5052 70.619C50.2449 70.7162 50.007 70.8651 49.8058 71.0567C49.6046 71.2483 49.4442 71.4787 49.3345 71.734C49.2247 71.9892 49.1678 72.2641 49.1671 72.5419C49.1665 72.8198 49.2221 73.0949 49.3306 73.3507C49.5453 73.8737 49.9558 74.2921 50.4747 74.5167C50.9935 74.7412 51.5796 74.7541 52.1078 74.5526L54.3933 73.6421L52.7907 69.7084Z" fill="#101C3A"/>
<path d="M85.1535 57.616L81.0195 59.2186L82.2761 62.3054L86.3554 60.721L85.1535 57.616Z" fill="#390D9F"/>
<path d="M80.8359 59.1368L85.234 57.4341L86.5361 60.8032L82.2382 62.4877L80.8359 59.1368ZM85.0701 57.7892L81.2002 59.2916L82.3566 62.1235L86.181 60.6393L85.0701 57.7892Z" fill="#101C3A"/>
<g style="mix-blend-mode:screen" opacity="0.3">
<path d="M107.48 67.3776C103.62 68.8632 99.3313 68.7783 95.5326 67.141C91.734 65.5038 88.7274 62.4444 87.1565 58.6179C86.3813 56.7392 85.9899 54.7244 86.0053 52.6921C86.0207 50.6598 86.4426 48.6511 87.2462 46.7843C88.0497 44.9176 89.2187 43.2305 90.6842 41.8224C92.1497 40.4144 93.8822 39.3138 95.7796 38.5854C99.64 37.0998 103.929 37.1847 107.727 38.822C111.526 40.4592 114.533 43.5186 116.103 47.3451C116.879 49.2238 117.27 51.2386 117.255 53.2709C117.239 55.3032 116.817 57.3119 116.014 59.1787C115.21 61.0454 114.041 62.7325 112.576 64.1406C111.11 65.5486 109.378 66.6493 107.48 67.3776V67.3776Z" fill="#364AC0"/>
</g>
<path d="M83.9146 56.6052L82.6489 57.106C82.5556 57.1402 82.4702 57.1929 82.3977 57.2609C82.3252 57.329 82.2673 57.411 82.2273 57.502C82.1873 57.593 82.1662 57.6911 82.1651 57.7905C82.164 57.8899 82.183 57.9885 82.221 58.0803L83.951 62.3236C84.026 62.5118 84.1727 62.6626 84.3588 62.7429C84.5449 62.8231 84.7552 62.8262 84.9436 62.7515L86.2183 62.2598L83.9146 56.6052Z" fill="#390D9F"/>
<path d="M82.1207 57.3882C82.2234 57.1965 82.3914 57.048 82.5942 56.9694L83.9874 56.4321L86.4004 62.3417L84.9981 62.888C84.8869 62.9324 84.768 62.9544 84.6483 62.9528C84.5286 62.9511 84.4104 62.9259 84.3005 62.8785C84.1905 62.8312 84.091 62.7626 84.0076 62.6767C83.9242 62.5909 83.8585 62.4894 83.8143 62.3781L82.0934 58.1349C82.046 58.0273 82.0215 57.911 82.0215 57.7934C82.0215 57.6758 82.046 57.5596 82.0934 57.452C82.0981 57.4291 82.1074 57.4074 82.1207 57.3882V57.3882ZM83.8417 56.7872L82.6943 57.2334C82.5426 57.2942 82.421 57.4126 82.3562 57.5627C82.2913 57.7129 82.2885 57.8825 82.3483 58.0347L84.0784 62.2689C84.1412 62.4236 84.2623 62.5475 84.4156 62.6139C84.5688 62.6804 84.742 62.684 84.8979 62.624L86.0361 62.1778L83.8417 56.7872Z" fill="#101C3A"/>
<path d="M79.2612 58.0621L53.2828 68.1603C52.8696 68.3188 52.4924 68.5584 52.1733 68.865C51.8542 69.1716 51.5997 69.5389 51.4249 69.9454C51.2501 70.352 51.1584 70.7894 51.1554 71.2319C51.1523 71.6743 51.2378 72.113 51.407 72.5219C51.749 73.355 52.4039 74.0208 53.2313 74.3766C54.0586 74.7324 54.9924 74.7498 55.8323 74.425L81.8108 64.3268C81.9586 64.2706 82.0937 64.1853 82.208 64.076C82.3223 63.9667 82.4136 63.8357 82.4764 63.6905C82.5392 63.5454 82.5723 63.3891 82.5737 63.231C82.5751 63.0728 82.5448 62.916 82.4846 62.7697L80.8456 58.745C80.7241 58.446 80.4898 58.2067 80.1933 58.0789C79.8969 57.9511 79.5621 57.9451 79.2612 58.0621V58.0621Z" fill="#029491"/>
<path d="M122.276 90.2585C124.379 88.2189 126.51 80.1421 128.823 79.3864V72.5116C107.88 65.8463 95.1318 59.8547 95.1318 59.8547V83.2654C96.7253 84.522 99.4115 91.5424 102.699 93.9463C108.189 98.0074 115.492 96.8328 122.276 90.2585Z" fill="#FF7761"/>
<path d="M135.753 46.8703C134.66 38.4566 134.214 32.6472 120.683 28.058C106.223 23.1591 93.4477 29.4238 88.5489 43.8836C86.8552 48.8826 89.9694 71.3281 91.8815 78.3303C93.2019 83.1563 108.208 91.5881 108.208 91.5881C109.028 92.8083 115.101 92.7719 115.93 91.5062C115.93 91.5062 130.499 81.6812 131.71 78.4305C134.241 71.583 136.071 49.3652 135.753 46.8703Z" fill="#FFAE99"/>
<path d="M136.794 19.6349C136.794 19.6349 100.807 23.9359 84.1361 34.4715C84.1361 34.4715 116.157 68.8769 136.794 19.6349Z" fill="#101C3A"/>
<path d="M110.184 69.4611L109.574 68.2137C109.574 68.2137 113.335 66.2833 112.543 64.5714C110.166 59.2992 111.131 52.1513 111.177 51.8235L112.552 52.0147C112.552 52.0875 111.641 59.0716 113.817 63.9795C115.156 66.9844 110.439 69.3883 110.184 69.4611Z" fill="#101C3A"/>
<path d="M108.547 69.9998C110.788 69.1381 112.835 67.8368 114.566 66.1724C116.297 64.5081 117.678 62.5144 118.628 60.3085C119.577 58.1026 120.076 55.7292 120.094 53.3277C120.113 50.9263 119.651 48.5454 118.736 46.3251C116.88 41.8023 113.326 38.1861 108.836 36.2511C104.347 34.316 99.2777 34.2158 94.7151 35.972C92.4735 36.8337 90.4269 38.135 88.6957 39.7993C86.9645 41.4637 85.5835 43.4574 84.6342 45.6633C83.6848 47.8692 83.1861 50.2426 83.1675 52.644C83.1489 55.0455 83.6108 57.4264 84.5259 59.6467C86.3841 64.168 89.9378 67.7826 94.4268 69.7174C98.9159 71.6522 103.984 71.7536 108.547 69.9998V69.9998ZM95.7987 38.6217C99.6554 37.1363 103.941 37.2204 107.736 38.856C111.531 40.4917 114.535 43.5487 116.104 47.3723C116.881 49.2497 117.275 51.2636 117.261 53.2954C117.247 55.3272 116.827 57.3358 116.025 59.2026C115.223 61.0695 114.056 62.7571 112.592 64.1657C111.127 65.5743 109.396 66.6756 107.499 67.4047C103.643 68.8901 99.3576 68.806 95.5621 67.1704C91.7667 65.5347 88.7627 62.4777 87.1938 58.6542C86.4164 56.7779 86.0223 54.765 86.0346 52.734C86.0469 50.7031 86.4655 48.6952 87.2657 46.8285C88.0658 44.9617 89.2314 43.274 90.6937 41.8645C92.156 40.4551 93.8855 39.3526 95.7805 38.6217H95.7987Z" fill="#390D9F"/>
<path d="M93.8026 49.9387L93.0195 48.7823C99.9945 44.0838 105.185 48.3817 105.239 48.4272L104.329 49.4835C104.156 49.3378 99.8761 45.8412 93.8026 49.9387Z" fill="#101C3A"/>
<path d="M128.195 50.2756C128.04 50.1026 124.325 46.0141 117.705 49.1556L117.113 47.899C124.707 44.2568 129.196 49.3104 129.242 49.365L128.195 50.2756Z" fill="#101C3A"/>
<path d="M109.173 76.527C106.997 76.5586 104.829 76.2734 102.735 75.6802L103.172 74.3599C105.127 74.8967 107.147 75.1572 109.173 75.1338C112.815 75.1338 119.708 72.9667 119.781 72.9485L120.2 74.2688C119.909 74.3599 113.016 76.527 109.173 76.527Z" fill="#101C3A"/>
<path d="M99.822 58.5344C101.617 58.5344 103.073 57.079 103.073 55.2837C103.073 53.4883 101.617 52.033 99.822 52.033C98.0267 52.033 96.5713 53.4883 96.5713 55.2837C96.5713 57.079 98.0267 58.5344 99.822 58.5344Z" fill="#101C3A"/>
<path d="M122.44 58.5344C124.235 58.5344 125.691 57.079 125.691 55.2837C125.691 53.4883 124.235 52.033 122.44 52.033C120.645 52.033 119.189 53.4883 119.189 55.2837C119.189 57.079 120.645 58.5344 122.44 58.5344Z" fill="#101C3A"/>
<path opacity="0.5" d="M107.48 67.3776C103.62 68.8632 99.3313 68.7783 95.5326 67.141C91.734 65.5038 88.7274 62.4444 87.1565 58.6179C86.3813 56.7392 85.9899 54.7244 86.0053 52.6921C86.0207 50.6598 86.4426 48.6511 87.2462 46.7843C88.0497 44.9176 89.2187 43.2305 90.6842 41.8224C92.1497 40.4144 93.8822 39.3138 95.7796 38.5854C99.64 37.0998 103.929 37.1847 107.727 38.822C111.526 40.4592 114.533 43.5186 116.103 47.3451C116.879 49.2238 117.27 51.2386 117.255 53.2709C117.239 55.3032 116.817 57.3119 116.014 59.1787C115.21 61.0454 114.041 62.7325 112.576 64.1406C111.11 65.5486 109.378 66.6493 107.48 67.3776V67.3776Z" fill="#EBF1FD"/>
<path d="M71.5493 58.809C66.9965 54.7752 64.3376 61.1492 64.3376 61.1492C60.0853 58.0077 57.7178 62.5059 57.7178 62.5059C56.3546 62.4798 55.0013 62.7436 53.7477 63.2799C53.0921 64.1268 52.9282 68.3609 56.6889 69.2988C60.4495 70.2367 60.8319 66.8493 60.8319 66.8493C62.5529 69.4171 65.7945 69.581 66.9236 68.7797C68.0527 67.9784 67.4609 65.2559 67.4426 65.1375C68.0112 65.6419 68.687 66.0106 69.4189 66.2157C70.1508 66.4208 70.9198 66.4568 71.6677 66.3212C74.1626 65.8568 74.2172 62.6789 74.2264 62.5606C74.6615 63.5326 75.3542 64.3671 76.2296 64.9736C77.2221 65.5655 78.2784 65.4562 79.6169 65.4015C81.866 65.3105 84.0605 60.958 78.7063 57.343C73.3522 53.7281 71.5493 58.809 71.5493 58.809Z" fill="#FFAE99"/>
<path d="M67.3515 64.9642C67.2052 64.1826 66.8948 63.4409 66.441 62.7879C66.2157 62.4527 65.9496 62.1468 65.6488 61.8774C65.3542 61.6132 65.0191 61.398 64.6562 61.24C64.9624 61.4739 65.2487 61.7328 65.5122 62.014C65.7751 62.2985 66.0156 62.6029 66.2315 62.9245C66.4461 63.2417 66.6436 63.5699 66.8234 63.9079C67.0237 64.254 67.1967 64.6 67.3515 64.9642Z" fill="#D17F80"/>
<path d="M60.75 66.5213C60.6135 65.7367 60.3023 64.993 59.8394 64.345C59.6142 64.0125 59.3514 63.7069 59.0563 63.4344C58.7582 63.1728 58.42 62.9606 58.0547 62.8062C58.3618 63.0424 58.6509 63.3011 58.9197 63.5801C59.1797 63.8648 59.4171 64.1692 59.63 64.4907C59.8485 64.8003 60.0397 65.1372 60.2309 65.4741C60.4222 65.811 60.5952 66.157 60.75 66.5213Z" fill="#D17F80"/>
<path d="M74.2164 62.5606C74.0781 61.7794 73.767 61.039 73.3059 60.3934C73.0862 60.0566 72.8229 59.7505 72.5228 59.4829C72.2282 59.2186 71.8931 59.0034 71.5303 58.8455C71.8325 59.0874 72.1184 59.349 72.3862 59.6285C72.6461 59.9132 72.8836 60.2177 73.0964 60.5391C73.3159 60.8517 73.5166 61.177 73.6974 61.5134C73.8977 61.8594 74.0434 62.1781 74.2164 62.5606Z" fill="#D17F80"/>
<path d="M253.644 214.061C247.743 220.538 240.549 225.705 232.527 229.231C220.625 234.353 207.302 235.129 194.885 231.425C192.345 230.677 189.857 229.765 187.436 228.693C180.533 225.651 174.185 221.482 168.651 216.355L168.524 216.237C164.297 212.352 160.493 208.03 157.178 203.343C156.659 202.624 156.167 201.895 155.667 201.149C154.692 199.71 153.773 198.235 152.935 196.742C130.954 159.609 135.407 108.298 162.997 78.5683C179.25 61.0582 200.284 55.1759 220.016 60.184C220.532 60.3115 221.051 60.4481 221.573 60.5938H221.664C223.486 61.1037 225.252 61.7047 227.019 62.4149C230.286 63.6962 233.439 65.2528 236.443 67.0679C246 73.0048 254.132 80.9726 260.263 90.4057C269.436 104.406 275.062 120.429 276.654 137.09C276.808 138.447 276.927 139.822 277.009 141.179C278.812 168.177 270.853 195.53 253.644 214.061Z" fill="#101C3A"/>
<path d="M154.173 183.739C155.381 186.719 156.74 189.637 158.243 192.48C159.715 195.295 161.335 198.031 163.097 200.675C167.009 206.576 171.688 211.931 177.01 216.601L177.147 216.728C179.603 218.857 182.208 220.807 184.941 222.565C187.537 224.225 190.252 225.692 193.063 226.954C205.456 232.661 219.545 233.483 232.518 229.258C242.458 225.882 251.369 220.021 258.405 212.23C261.873 208.479 264.963 204.395 267.63 200.038C268.158 199.191 268.658 198.326 269.15 197.452C274.768 187.377 278.523 176.371 280.232 164.963C281.479 156.959 281.83 148.841 281.279 140.76C281.279 140.305 281.224 139.849 281.179 139.385C281.124 138.474 281.033 137.564 280.924 136.653C280.555 133.049 280.002 129.465 279.267 125.918C279.094 125.062 278.902 124.197 278.702 123.35C276.082 111.834 271.403 100.886 264.889 91.0338C259.805 83.2846 253.36 76.5193 245.867 71.0651C244.802 70.3002 243.718 69.5718 242.625 68.8798C241.005 67.8599 239.35 66.9221 237.663 66.0661C234.419 64.4083 231.029 63.0519 227.537 62.0141C225.605 61.4498 223.645 60.9878 221.664 60.63V60.63H221.61L220.025 60.3842C202.333 57.7618 184.058 63.9445 169.625 79.5061C145.559 105.366 139.941 148.791 154.173 183.739Z" fill="#029491"/>
<path d="M170.372 192.817C191.397 224.259 227.929 228.666 252.059 202.733C276.189 176.8 278.639 130.297 257.614 98.9284C236.589 67.5594 200.02 63.0703 175.927 89.0123C151.833 114.954 149.356 161.43 170.372 192.817Z" fill="#EBF1FD"/>
<path d="M177.648 184.986C195.167 211.165 225.644 214.862 245.722 193.254C265.8 171.646 267.867 132.892 250.347 106.75C232.828 80.6078 202.351 76.8745 182.273 98.4913C162.195 120.108 160.128 158.807 177.648 184.986Z" fill="#029491"/>
<path d="M184.913 177.155C198.927 198.098 223.312 201.058 239.374 183.766C255.437 166.474 257.094 135.506 243.08 114.563C229.067 93.6199 204.682 90.6606 188.619 107.952C172.557 125.244 170.9 156.221 184.913 177.155Z" fill="#EBF1FD"/>
<path d="M192.18 169.333C202.697 185.04 220.981 187.262 233.028 174.287C245.075 161.311 246.322 138.074 235.759 122.384C225.197 106.695 206.986 104.446 194.966 117.413C182.947 130.379 181.672 153.626 192.18 169.333Z" fill="#029491"/>
<path d="M199.455 161.503C206.457 171.974 218.65 173.458 226.681 164.808C234.712 156.158 235.541 140.669 228.502 130.207C221.464 119.744 209.298 118.251 201.267 126.901C193.236 135.552 192.417 151.031 199.455 161.503Z" fill="#EBF1FD"/>
<path d="M206.723 153.681C210.228 158.917 216.32 159.654 220.381 155.329C224.442 151.004 224.806 143.264 221.292 138.028C217.777 132.793 211.694 132.055 207.679 136.38C203.663 140.705 203.226 148.445 206.723 153.681Z" fill="#029491"/>
<path d="M323.985 129.223L216.092 147.817C215.507 147.918 214.906 147.783 214.419 147.441C213.933 147.1 213.602 146.58 213.497 145.996V145.996C213.397 145.41 213.532 144.809 213.873 144.323C214.214 143.837 214.734 143.505 215.318 143.401L323.257 124.807L323.985 129.223Z" fill="#101C3A"/>
<path d="M294.355 130.279L315.626 111.858L344.5 106.896L331.279 125.617L350 138.838L321.126 143.81L294.92 133.575L294.355 130.279Z" fill="#101C3A"/>
<path d="M209.181 55.1847C214.554 50.1493 217.996 57.7798 217.996 57.7798C223.04 53.8371 226.045 59.2003 226.045 59.2003C227.696 59.1301 229.343 59.4061 230.88 60.0107C231.7 61.0214 232.046 66.1388 227.52 67.3954C222.995 68.652 222.421 64.5635 222.421 64.5635C220.427 67.7323 216.511 68.0328 215.136 67.104C213.761 66.1752 214.372 62.8608 214.39 62.7242C213.72 63.355 212.915 63.8241 212.035 64.0956C211.156 64.3671 210.227 64.4337 209.318 64.2904C206.277 63.8169 206.104 60.0198 206.094 59.8286C205.603 61.0226 204.79 62.0566 203.745 62.8152C202.571 63.5619 201.287 63.4708 199.666 63.4526C196.934 63.4526 194.139 58.2078 200.576 53.664C207.014 49.1203 209.181 55.1847 209.181 55.1847Z" fill="#FFAE99"/>
<path d="M214.471 62.5059C214.603 61.5548 214.949 60.6458 215.481 59.847C215.737 59.4397 216.043 59.0665 216.392 58.7361C216.742 58.4084 217.141 58.1379 217.576 57.9348C217.213 58.2313 216.875 58.5572 216.565 58.9091C216.258 59.2544 215.978 59.6227 215.727 60.0109C215.472 60.3999 215.241 60.8044 215.035 61.222C214.844 61.6317 214.644 62.0597 214.471 62.5059Z" fill="#D17F80"/>
<path d="M222.512 64.163C222.648 63.213 222.993 62.305 223.522 61.5042C223.778 61.0994 224.084 60.7291 224.433 60.4024C224.783 60.0746 225.182 59.8042 225.617 59.6011C225.254 59.8976 224.916 60.2234 224.606 60.5754C224.296 60.9184 224.016 61.2869 223.768 61.6772C223.515 62.0642 223.284 62.4656 223.076 62.8791C222.885 63.298 222.685 63.7259 222.512 64.163Z" fill="#D17F80"/>
<path d="M206.076 59.8286C206.208 58.8775 206.554 57.9686 207.087 57.1698C207.339 56.7604 207.646 56.3868 207.997 56.0589C208.347 55.7311 208.747 55.4607 209.181 55.2576C208.818 55.5541 208.48 55.8799 208.17 56.2319C207.861 56.5749 207.58 56.9434 207.333 57.3337C207.079 57.7207 206.848 58.1221 206.641 58.5356C206.449 58.9545 206.249 59.3824 206.076 59.8286Z" fill="#D17F80"/>
</svg>
